<svg width="800" height="770" viewBox="0 0 800 770" xmlns="http://www.w3.org/2000/svg" font-family="Segoe UI, Helvetica, Arial, sans-serif">
  <defs>
    <marker id="a-gray" viewBox="0 0 12 12" refX="9" refY="6" markerWidth="8" markerHeight="8" orient="auto-start-reverse"><path d="M1 1L10 6L1 11" fill="none" stroke="#334155" stroke-width="2" stroke-linecap="round" stroke-linejoin="round"/></marker>
    <filter id="shadow" x="-20%" y="-20%" width="140%" height="140%"><feDropShadow dx="0" dy="1.5" stdDeviation="2.5" flood-color="#0F172A" flood-opacity="0.15"/></filter>
  </defs>

  <rect x="0" y="0" width="800" height="770" fill="#FFFFFF"/>
  <rect x="0" y="0" width="800" height="90" fill="#000000"/>
  <text x="400" y="40" text-anchor="middle" font-size="24" font-weight="600" fill="#FFFFFF">Kafka Topics</text>
  <text x="400" y="66" text-anchor="middle" font-size="13" fill="#D4D4D8">Topic-to-consumer mapping across the pipeline</text>

  <!-- ============ qr-scans ============ -->
  <g filter="url(#shadow)"><rect x="60" y="135" width="220" height="70" rx="8" fill="#1A1A1A" stroke="#000000" stroke-width="1.4"/></g>
  <rect x="60" y="197" width="220" height="8" fill="#B71C1C"/>
  <path d="M84 158 h13 M84 168 h13 M84 178 h13" stroke="#FFFFFF" stroke-width="2"/>
  <text x="112" y="164" font-size="13" font-weight="600" fill="#FFFFFF">Kafka topic</text>
  <text x="112" y="182" font-size="14" fill="#F4F4F5">qr-scans</text>

  <line x1="280" y1="170" x2="410" y2="170" stroke="#334155" stroke-width="2.2" marker-end="url(#a-gray)"/>

  <g filter="url(#shadow)"><rect x="420" y="140" width="300" height="60" rx="10" fill="#CCFBF1" stroke="#0F766E" stroke-width="1.6"/></g>
  <text x="570" y="175" text-anchor="middle" font-size="15" font-weight="600" fill="#0F766E">Validation Consumer</text>

  <!-- ============ validation-results ============ -->
  <g filter="url(#shadow)"><rect x="60" y="335" width="220" height="70" rx="8" fill="#1A1A1A" stroke="#000000" stroke-width="1.4"/></g>
  <rect x="60" y="397" width="220" height="8" fill="#B71C1C"/>
  <path d="M84 358 h13 M84 368 h13 M84 378 h13" stroke="#FFFFFF" stroke-width="2"/>
  <text x="112" y="364" font-size="13" font-weight="600" fill="#FFFFFF">Kafka topic</text>
  <text x="112" y="382" font-size="13.5" fill="#F4F4F5">validation-results</text>

  <line x1="280" y1="360" x2="410" y2="270" stroke="#334155" stroke-width="2.2" marker-end="url(#a-gray)"/>
  <line x1="280" y1="370" x2="410" y2="370" stroke="#334155" stroke-width="2.2" marker-end="url(#a-gray)"/>
  <line x1="280" y1="380" x2="410" y2="470" stroke="#334155" stroke-width="2.2" marker-end="url(#a-gray)"/>

  <g filter="url(#shadow)"><rect x="420" y="240" width="300" height="60" rx="10" fill="#DBEAFE" stroke="#1E3A8A" stroke-width="1.6"/></g>
  <text x="570" y="275" text-anchor="middle" font-size="15" font-weight="600" fill="#1E3A8A">Gateway (WebSocket)</text>

  <g filter="url(#shadow)"><rect x="420" y="340" width="300" height="60" rx="10" fill="#CCFBF1" stroke="#0F766E" stroke-width="1.6"/></g>
  <text x="570" y="375" text-anchor="middle" font-size="15" font-weight="600" fill="#0F766E">Analytics Consumer</text>

  <g filter="url(#shadow)"><rect x="420" y="440" width="300" height="60" rx="10" fill="#CCFBF1" stroke="#0F766E" stroke-width="1.6"/></g>
  <text x="570" y="475" text-anchor="middle" font-size="15" font-weight="600" fill="#0F766E">Audit Consumer</text>

  <!-- ============ retry-validation ============ -->
  <g filter="url(#shadow)"><rect x="60" y="535" width="220" height="70" rx="8" fill="#1A1A1A" stroke="#000000" stroke-width="1.4"/></g>
  <rect x="60" y="597" width="220" height="8" fill="#B71C1C"/>
  <path d="M84 558 h13 M84 568 h13 M84 578 h13" stroke="#FFFFFF" stroke-width="2"/>
  <text x="112" y="564" font-size="13" font-weight="600" fill="#FFFFFF">Kafka topic</text>
  <text x="112" y="582" font-size="13.5" fill="#F4F4F5">retry-validation</text>

  <line x1="280" y1="570" x2="410" y2="570" stroke="#334155" stroke-width="2.2" marker-end="url(#a-gray)"/>

  <g filter="url(#shadow)"><rect x="420" y="540" width="300" height="60" rx="10" fill="#FFEDD5" stroke="#C2410C" stroke-width="1.6"/></g>
  <text x="570" y="575" text-anchor="middle" font-size="15" font-weight="600" fill="#9A3412">Retry Consumer</text>

  <!-- ============ dead-letter-validation ============ -->
  <g filter="url(#shadow)"><rect x="60" y="635" width="220" height="70" rx="8" fill="#1A1A1A" stroke="#000000" stroke-width="1.4"/></g>
  <rect x="60" y="697" width="220" height="8" fill="#B71C1C"/>
  <path d="M84 658 h13 M84 668 h13 M84 678 h13" stroke="#FFFFFF" stroke-width="2"/>
  <text x="112" y="664" font-size="13" font-weight="600" fill="#FFFFFF">Kafka topic</text>
  <text x="112" y="682" font-size="12.5" fill="#F4F4F5">dead-letter-validation</text>

  <line x1="280" y1="670" x2="410" y2="670" stroke="#334155" stroke-width="2.2" marker-end="url(#a-gray)"/>

  <g filter="url(#shadow)"><rect x="420" y="640" width="300" height="60" rx="10" fill="#FEE2E2" stroke="#B91C1C" stroke-width="1.6"/></g>
  <text x="570" y="675" text-anchor="middle" font-size="15" font-weight="600" fill="#7F1D1D">DLQ Consumer</text>

  <!-- Legend -->
  <g transform="translate(60, 740)">
    <rect x="0" y="-13" width="18" height="18" rx="3" fill="#1A1A1A"/>
    <text x="26" y="0" font-size="12.5" fill="#334155">Kafka topic</text>
    <rect x="140" y="-13" width="18" height="18" rx="3" fill="#CCFBF1" stroke="#0F766E"/>
    <text x="166" y="0" font-size="12.5" fill="#334155">Consumer group</text>
    <rect x="320" y="-13" width="18" height="18" rx="3" fill="#DBEAFE" stroke="#1E3A8A"/>
    <text x="346" y="0" font-size="12.5" fill="#334155">Gateway service</text>
  </g>
</svg>
